<svg width="32" height="32" viewBox="0 0 32 32" fill="none" xmlns="http://www.w3.org/2000/svg">
<g clip-path="url(#clip0_7_146)">
<path d="M31.2494 11H27.5075L26.4675 8.4C25.3988 5.72687 22.8481 4 19.9688 4H12.0313C9.1525 4 6.60125 5.72687 5.53188 8.4L4.49188 11H0.750627C0.262502 11 -0.0956234 11.4588 0.0231266 11.9319L0.398127 13.4319C0.481252 13.7656 0.781252 14 1.12563 14H2.38C1.54063 14.7331 1 15.7987 1 17V20C1 21.0075 1.385 21.9169 2 22.6206V26C2 27.1044 2.89563 28 4 28H6C7.10438 28 8 27.1044 8 26V24H24V26C24 27.1044 24.8956 28 26 28H28C29.1044 28 30 27.1044 30 26V22.6206C30.615 21.9175 31 21.0081 31 20V17C31 15.7987 30.4594 14.7331 29.6206 14H30.875C31.2194 14 31.5194 13.7656 31.6025 13.4319L31.9775 11.9319C32.0956 11.4588 31.7375 11 31.2494 11ZM9.24563 9.88562C9.70125 8.74687 10.8044 8 12.0313 8H19.9688C21.1956 8 22.2988 8.74687 22.7544 9.88562L24 13H8L9.24563 9.88562ZM6 19.9875C4.8 19.9875 4 19.19 4 17.9937C4 16.7975 4.8 16 6 16C7.2 16 9 17.7944 9 18.9906C9 20.1869 7.2 19.9875 6 19.9875ZM26 19.9875C24.8 19.9875 23 20.1869 23 18.9906C23 17.7944 24.8 16 26 16C27.2 16 28 16.7975 28 17.9937C28 19.19 27.2 19.9875 26 19.9875Z" fill="#467BA5"/>
</g>
<defs>
<clipPath id="clip0_7_146">
<rect width="32" height="32" fill="white"/>
</clipPath>
</defs>
</svg>
