<svg width="765" height="510" viewBox="0 0 765 510" fill="none" xmlns="http://www.w3.org/2000/svg">
<g clip-path="url(#clip0_7_21)">
<path d="M745.464 492.622L737.909 495.836L721.895 468.268L733.046 463.523L745.464 492.622Z" fill="#FFB6B6"/>
<path d="M683.032 499.761L674.821 499.76L670.914 468.13H683.034L683.032 499.761Z" fill="#FFB6B6"/>
<path d="M683.321 508.316L658.068 508.315V507.996C658.068 505.393 659.104 502.896 660.947 501.055C662.79 499.215 665.29 498.181 667.897 498.181H667.898L672.511 494.686L681.117 498.181L683.322 498.181L683.321 508.316Z" fill="#2F2E41"/>
<path d="M750.058 498.098L726.826 507.984L726.701 507.691C725.679 505.296 725.651 502.594 726.624 500.179C727.597 497.764 729.491 495.834 731.889 494.813L731.89 494.813L734.761 489.792L744.051 489.638L746.079 488.775L750.058 498.098Z" fill="#2F2E41"/>
<path d="M674.977 312.558L662.496 388.447L665.892 399.756L661.435 407.765L667.981 478.104L665.324 483.945L672.747 488.517H687.853L688.654 424.838L692.386 415.489V410.336L699.981 371.507L701.38 415.923L703.59 425.287L701.734 431.954L704.159 436.625L724.941 481.188H741.879L740.57 471.11C743.604 469.576 736.013 465.091 735.284 461.774L737.778 456.17L735.284 445.585L732.997 424.902L735.409 381.244L734.274 322.453C728.587 314.839 722.278 308.967 714.459 307.323L674.977 312.558Z" fill="#2F2E41"/>
<path d="M705.371 212.616C714.825 212.616 722.488 204.964 722.488 195.523C722.488 186.083 714.825 178.43 705.371 178.43C695.917 178.43 688.254 186.083 688.254 195.523C688.254 204.964 695.917 212.616 705.371 212.616Z" fill="#FFB6B6"/>
<path d="M634.797 330.488C634.583 329.528 634.583 328.533 634.797 327.573C635.01 326.613 635.432 325.712 636.032 324.932C636.632 324.152 637.396 323.513 638.27 323.061C639.144 322.608 640.107 322.352 641.091 322.311L647.987 299.42L655.958 308.956L648.188 329.231C648.148 330.886 647.501 332.469 646.37 333.679C645.239 334.89 643.702 335.644 642.052 335.799C640.401 335.954 638.751 335.499 637.414 334.52C636.077 333.541 635.145 332.107 634.797 330.488Z" fill="#FFB6B6"/>
<path d="M679.527 236.402L676.436 230.764L672.454 232.091C672.454 232.091 668.058 234.924 661.903 245.618C659.056 250.563 652.902 282.279 652.902 282.279L638.517 320.314L653.182 322.79L665.419 291.444L679.604 261.447L679.527 236.402Z" fill="#467BA5"/>
<path d="M704.737 312.318C716.789 312.318 728.949 314.688 733.929 323.159C733.799 321.317 733.472 318.123 733.133 315.193L731.887 307.319L733.15 300.1L734.819 298.434L731.83 295.45L733.869 280.381L740.599 244.882C741.126 242.089 740.715 239.2 739.428 236.665C738.142 234.13 736.052 232.091 733.485 230.864L727.019 227.759L716.538 218.051L697.578 217.909L691.392 225.94L675.109 231.462L677.842 287.925L676.051 292.099C676.453 292.467 677.3 293.254 677.758 293.761C678.407 294.478 677.581 298.169 677.03 300.306L676.273 305.998L678.656 307.697L675.559 311.35L674.94 315.987C678.015 315.261 691.309 312.318 704.737 312.318Z" fill="#467BA5"/>
<path d="M709.75 211.779C709.823 211.619 709.896 211.457 709.969 211.295C709.941 211.296 709.913 211.3 709.885 211.301L709.75 211.779Z" fill="#2F2E41"/>
<path d="M722.964 179.208C722.152 178.442 721.095 177.986 719.98 177.919C718.873 177.955 717.751 178.953 717.98 180.035C715.947 176.44 712.711 173.676 708.84 172.226C704.969 170.777 700.71 170.735 696.811 172.109C694.06 173.078 691.362 175.017 690.73 177.861C690.669 178.607 690.446 179.332 690.077 179.984C689.757 180.333 689.342 180.58 688.883 180.697C688.424 180.813 687.941 180.792 687.493 180.638L687.466 180.63C687.313 180.577 687.148 180.572 686.992 180.615C686.835 180.658 686.696 180.746 686.59 180.869C686.485 180.992 686.419 181.143 686.401 181.304C686.383 181.464 686.414 181.627 686.489 181.77L687.267 183.219C686.286 183.438 685.267 183.416 684.296 183.156C684.134 183.114 683.964 183.123 683.808 183.181C683.651 183.239 683.517 183.344 683.423 183.482C683.329 183.62 683.28 183.783 683.283 183.949C683.285 184.116 683.339 184.277 683.437 184.412C684.731 186.179 686.42 187.621 688.37 188.621C690.319 189.622 692.476 190.155 694.668 190.177C697.778 190.158 700.92 189.087 703.947 189.801C705.118 190.078 706.212 190.612 707.15 191.366C708.087 192.12 708.843 193.073 709.363 194.157C709.883 195.24 710.153 196.426 710.154 197.628C710.155 198.829 709.887 200.016 709.369 201.1C710.298 200.085 712.096 200.325 713.047 201.321C713.485 201.854 713.809 202.471 713.998 203.134C714.188 203.797 714.239 204.492 714.149 205.176C713.895 207.27 713.272 209.302 712.31 211.179C715.988 211.066 719.542 209.829 722.493 207.634C725.444 205.44 727.65 202.393 728.811 198.907C729.973 195.421 730.036 191.662 728.99 188.139C727.944 184.616 725.841 181.499 722.964 179.208H722.964Z" fill="#2F2E41"/>
<path d="M169.757 115.391C193.261 115.391 212.314 96.3643 212.314 72.8943C212.314 49.4243 193.261 30.3982 169.757 30.3982C146.254 30.3982 127.2 49.4243 127.2 72.8943C127.2 96.3643 146.254 115.391 169.757 115.391Z" fill="#467BA5"/>
<path d="M50.1471 199.308C28.7936 152.142 29.5809 92.3581 62.7208 52.558C73.8081 107.747 104.087 157.242 148.2 192.284C165.262 205.737 185.642 218.926 190.303 240.13C193.203 253.323 189.092 267.278 181.985 278.771C174.878 290.264 164.971 299.717 155.177 309.035L154.078 312.223C111.46 282.758 71.5007 246.473 50.1471 199.308Z" fill="#F2F2F2"/>
<path d="M63.6433 53.1335C56.0165 94.8367 61.6823 139.243 80.2201 177.451C84.2279 185.711 89.0134 193.743 95.4206 200.386C101.831 207.033 109.495 211.217 118.311 213.788C126.371 216.138 134.889 217.609 142.236 221.875C149.981 226.371 154.788 233.915 156.66 242.567C158.951 253.152 157.296 263.928 155.312 274.41C153.108 286.048 150.634 298.101 153.828 309.8C154.214 311.218 151.989 311.735 151.603 310.319C146.047 289.964 156.849 269.889 155.339 249.424C154.635 239.875 151.044 230.48 142.845 224.948C135.674 220.11 126.893 218.584 118.711 216.275C110.12 213.851 102.405 210.148 95.8401 204.005C89.1244 197.721 84.0143 189.859 79.8126 181.737C70.3367 163.42 64.0901 143.24 60.7852 122.921C56.9848 99.5675 57.213 75.7369 61.46 52.4602C61.7235 51.0197 63.905 51.7024 63.6432 53.1335H63.6433Z" fill="white"/>
<path d="M73.5383 165.349C66.6204 167.563 59.1397 167.249 52.432 164.464C45.7243 161.679 40.2266 156.603 36.9205 150.144C36.2561 148.834 38.2623 147.742 38.9277 149.053C41.9951 155.073 47.1168 159.801 53.3683 162.382C59.6197 164.963 66.5892 165.227 73.0188 163.127C74.4166 162.673 74.9281 164.897 73.5383 165.349H73.5383Z" fill="white"/>
<path d="M114.067 213.134C120.98 200.009 122.685 184.765 118.842 170.441C118.46 169.023 120.686 168.506 121.067 169.923C125.038 184.836 123.231 200.696 116.008 214.338C115.318 215.637 113.382 214.426 114.067 213.134H114.067Z" fill="white"/>
<path d="M59.9217 100.309C62.7772 100.009 65.5134 99.0057 67.8846 97.3891C70.2558 95.7725 72.1879 93.5931 73.5072 91.0466C74.1797 89.7387 76.1158 90.9513 75.4476 92.2506C73.9769 95.0573 71.8402 97.4617 69.2244 99.2535C66.6085 101.045 63.5929 102.17 60.4412 102.53C60.147 102.589 59.8414 102.534 59.5865 102.375C59.3317 102.217 59.1466 101.968 59.0691 101.679C59.0018 101.384 59.0536 101.075 59.2132 100.819C59.3729 100.562 59.6275 100.379 59.9217 100.309Z" fill="white"/>
<path d="M238.224 53.02C237.827 53.8486 237.43 54.6772 237.043 55.5227C231.767 66.6899 227.409 78.2667 224.011 90.1387C223.733 91.0525 223.466 91.9826 223.215 92.9024C215.334 121.592 212.855 151.493 215.904 181.087C217.129 192.862 219.248 204.526 222.245 215.98C226.384 231.798 232.132 248.619 230.835 264.414C230.719 266.063 230.5 267.703 230.18 269.326L158.058 313.314C157.844 313.332 157.639 313.367 157.424 313.385L154.625 315.273C154.429 314.693 154.239 314.087 154.043 313.507C153.928 313.171 153.829 312.826 153.714 312.49C153.642 312.263 153.571 312.035 153.494 311.834C153.47 311.759 153.446 311.683 153.432 311.624C153.355 311.423 153.304 311.228 153.236 311.044C152.161 307.661 151.108 304.265 150.077 300.855C150.067 300.839 150.067 300.839 150.073 300.813C142.282 274.813 136.596 247.936 135.176 221.052C135.134 220.243 135.08 219.418 135.071 218.589C134.498 206.468 134.919 194.319 136.328 182.266C137.121 175.668 138.248 169.115 139.705 162.631C143.5 145.885 149.91 129.84 158.699 115.083C176.225 85.6682 202.976 62.1776 235.716 53.6472C236.554 53.4296 237.376 53.2212 238.224 53.02Z" fill="#F2F2F2"/>
<path d="M238.621 54.033C207.387 82.7453 185.137 121.608 176.902 163.26C175.121 172.265 174.1 181.554 175.21 190.711C176.321 199.872 179.917 207.82 185.407 215.173C190.426 221.896 196.339 228.191 199.634 236.015C203.107 244.261 202.396 253.174 198.675 261.207C194.122 271.036 186.304 278.646 178.399 285.822C169.623 293.789 160.38 301.926 155.876 313.187C155.33 314.552 153.242 313.626 153.787 312.264C161.623 292.671 182.352 283.137 193.485 265.889C198.68 257.841 201.478 248.181 198.267 238.834C195.459 230.66 189.367 224.163 184.227 217.4C178.829 210.299 174.902 202.704 173.364 193.852C171.79 184.797 172.45 175.448 173.992 166.437C177.47 146.115 184.65 126.246 194.262 108.036C205.308 87.1048 219.858 68.2146 237.283 52.1828C238.362 51.191 239.692 53.0477 238.621 54.033L238.621 54.033Z" fill="white"/>
<path d="M178.863 149.58C172.005 147.188 166.221 142.44 162.545 136.184C158.869 129.927 157.539 122.569 158.794 115.424C159.053 113.979 161.314 114.313 161.054 115.76C159.873 122.411 161.113 129.265 164.548 135.084C167.983 140.903 173.388 145.305 179.788 147.494C181.178 147.971 180.246 150.054 178.864 149.58H178.863Z" fill="white"/>
<path d="M182.413 212.1C195.845 205.777 206.398 194.63 211.966 180.883C212.516 179.521 214.605 180.446 214.055 181.806C208.234 196.101 197.229 207.678 183.236 214.228C181.902 214.851 181.086 212.72 182.413 212.1L182.413 212.1Z" fill="white"/>
<path d="M207.206 89.4621C209.667 90.9396 212.456 91.7837 215.324 91.9185C218.192 92.0534 221.049 91.4748 223.638 90.2347C224.963 89.5948 225.778 91.727 224.461 92.3627C221.594 93.7195 218.439 94.3546 215.27 94.2127C212.101 94.0707 209.015 93.1559 206.281 91.5483C206.011 91.4183 205.8 91.1904 205.692 90.9109C205.584 90.6314 205.587 90.3213 205.699 90.0435C205.823 89.7679 206.051 89.5523 206.333 89.4434C206.615 89.3345 206.929 89.3413 207.206 89.4621Z" fill="white"/>
<path d="M408.959 147.646C387.606 100.48 388.393 40.6961 421.533 0.896011C432.62 56.0853 462.899 105.58 507.013 140.622C524.074 154.075 544.454 167.264 549.115 188.468C552.015 201.661 547.904 215.616 540.797 227.109C533.69 238.601 523.783 248.055 513.989 257.373L512.89 260.561C470.272 231.096 430.313 194.811 408.959 147.646Z" fill="#F2F2F2"/>
<path d="M422.455 1.47149C414.829 43.1747 420.494 87.581 439.032 125.789C443.04 134.049 447.826 142.081 454.233 148.724C460.643 155.371 468.307 159.555 477.123 162.126C485.184 164.476 493.701 165.947 501.048 170.213C508.793 174.709 513.6 182.253 515.472 190.905C517.763 201.49 516.108 212.266 514.124 222.748C511.92 234.386 509.446 246.439 512.64 258.138C513.027 259.556 510.801 260.073 510.415 258.657C504.859 238.302 515.661 218.227 514.151 197.762C513.447 188.213 509.856 178.818 501.657 173.286C494.487 168.447 485.705 166.922 477.523 164.613C468.932 162.189 461.217 158.486 454.652 152.343C447.937 146.059 442.826 138.197 438.625 130.075C429.149 111.758 422.902 91.5776 419.597 71.259C415.797 47.9055 416.025 24.0749 420.272 0.798217C420.536 -0.642353 422.717 0.0403675 422.455 1.47149H422.455Z" fill="white"/>
<path d="M432.351 113.687C425.433 115.901 417.952 115.587 411.244 112.802C404.536 110.017 399.039 104.941 395.733 98.4816C395.068 97.1723 397.075 96.0798 397.74 97.3908C400.807 103.411 405.929 108.139 412.18 110.72C418.432 113.301 425.401 113.565 431.831 111.465C433.229 111.011 433.74 113.235 432.351 113.687Z" fill="white"/>
<path d="M472.88 161.472C479.792 148.347 481.497 133.103 477.654 118.779C477.273 117.361 479.498 116.843 479.879 118.261C483.85 133.174 482.044 149.034 474.82 162.676C474.131 163.975 472.194 162.764 472.879 161.472H472.88Z" fill="white"/>
<path d="M418.734 48.6465C421.589 48.3468 424.325 47.3437 426.697 45.7271C429.068 44.1105 431 41.9311 432.319 39.3846C432.992 38.0767 434.928 39.2893 434.26 40.5886C432.789 43.3953 430.652 45.7996 428.036 47.5915C425.421 49.3834 422.405 50.5084 419.253 50.8681C418.959 50.9268 418.654 50.8715 418.399 50.7134C418.144 50.5552 417.959 50.3061 417.881 50.0167C417.814 49.7222 417.866 49.4131 418.025 49.1565C418.185 48.9 418.44 48.7167 418.734 48.6465V48.6465Z" fill="white"/>
<path d="M597.036 1.358C596.639 2.18658 596.242 3.01516 595.855 3.86068C590.579 15.0279 586.221 26.6047 582.823 38.4767C582.545 39.3904 582.278 40.3206 582.028 41.2404C574.146 69.93 571.667 99.8315 574.716 129.425C575.941 141.2 578.06 152.864 581.057 164.318C585.196 180.136 590.945 196.957 589.647 212.752C589.531 214.401 589.312 216.041 588.992 217.664L516.871 261.652C516.656 261.67 516.451 261.705 516.236 261.723L513.437 263.611C513.241 263.031 513.051 262.425 512.855 261.845C512.74 261.509 512.641 261.164 512.526 260.828C512.454 260.601 512.383 260.373 512.306 260.172C512.282 260.097 512.258 260.021 512.244 259.962C512.167 259.761 512.116 259.566 512.049 259.382C510.973 255.999 509.92 252.603 508.889 249.193C508.879 249.177 508.879 249.177 508.885 249.151C501.094 223.151 495.408 196.274 493.988 169.39C493.946 168.581 493.893 167.756 493.883 166.927C493.31 154.806 493.731 142.657 495.14 130.604C495.933 124.006 497.06 117.453 498.517 110.969C502.313 94.2234 508.723 78.178 517.512 63.4211C535.037 34.0062 561.788 10.5155 594.528 1.98521C595.366 1.76759 596.188 1.55918 597.036 1.358Z" fill="#F0F0F0"/>
<path d="M597.433 2.37094C566.199 31.0833 543.949 69.9456 535.714 111.598C533.934 120.603 532.912 129.892 534.022 139.049C535.133 148.21 538.73 156.158 544.219 163.511C549.238 170.234 555.151 176.529 558.446 184.353C561.919 192.599 561.208 201.512 557.487 209.545C552.934 219.374 545.116 226.984 537.211 234.16C528.435 242.127 519.192 250.264 514.688 261.525C514.143 262.889 512.054 261.964 512.599 260.602C520.436 241.009 541.165 231.475 552.298 214.227C557.493 206.179 560.29 196.519 557.079 187.172C554.271 178.998 548.179 172.501 543.039 165.738C537.641 158.637 533.714 151.042 532.176 142.19C530.602 133.135 531.262 123.786 532.804 114.775C536.282 94.4531 543.462 74.5842 553.074 56.374C564.12 35.4427 578.67 16.5526 596.096 0.520813C597.175 -0.471006 598.505 1.38563 597.433 2.37097L597.433 2.37094Z" fill="white"/>
<path d="M537.676 97.9178C530.817 95.5264 525.033 90.7784 521.357 84.5217C517.681 78.2651 516.351 70.9072 517.606 63.7621C517.865 62.3172 520.126 62.651 519.866 64.0978C518.686 70.7492 519.925 77.603 523.36 83.4222C526.795 89.2414 532.201 93.6427 538.6 95.8317C539.99 96.309 539.058 98.3924 537.676 97.9178H537.676Z" fill="white"/>
<path d="M541.225 160.438C554.658 154.115 565.21 142.968 570.778 129.221C571.329 127.859 573.417 128.784 572.867 130.144C567.046 144.439 556.041 156.016 542.048 162.566C540.714 163.189 539.898 161.058 541.225 160.438L541.225 160.438Z" fill="white"/>
<path d="M566.018 37.8001C568.479 39.2776 571.268 40.1216 574.136 40.2565C577.004 40.3913 579.861 39.8128 582.45 38.5727C583.775 37.9328 584.59 40.065 583.273 40.7007C580.407 42.0575 577.251 42.6926 574.082 42.5506C570.913 42.4087 567.827 41.4939 565.094 39.8862C564.823 39.7563 564.613 39.5284 564.504 39.2489C564.396 38.9694 564.399 38.6593 564.511 38.3815C564.635 38.1059 564.863 37.8903 565.145 37.7814C565.427 37.6725 565.741 37.6793 566.018 37.8001Z" fill="white"/>
<path d="M136.796 497.44L144.679 503.536L175.328 508.846L209.393 424.287C209.393 424.287 230.255 359.119 288.666 372.451L476.416 369.118C476.416 369.118 534.063 363.218 543.589 390.366C545.394 395.508 594.073 509.105 594.073 509.105L628.204 504.295L624.113 407.448L543.051 219.548L402.151 210.763L256.957 220.798L136.796 497.44Z" fill="#3F3D56"/>
<path d="M292.838 378.284C322.793 378.284 347.077 354.034 347.077 324.122C347.077 294.209 322.793 269.96 292.838 269.96C262.883 269.96 238.599 294.209 238.599 324.122C238.599 354.034 262.883 378.284 292.838 378.284Z" fill="#2F2E41"/>
<path d="M474.747 378.284C504.703 378.284 528.987 354.034 528.987 324.122C528.987 294.209 504.703 269.96 474.747 269.96C444.792 269.96 420.508 294.209 420.508 324.122C420.508 354.034 444.792 378.284 474.747 378.284Z" fill="#2F2E41"/>
<path d="M229.42 146.638L251.753 142.265C251.753 142.265 419.897 118.307 526.178 146.638L518.139 169.136L236.93 167.469L229.42 146.638Z" fill="#E6E6E6"/>
<path d="M456.13 262.877H313.432C296.106 262.877 281.132 250.897 277.827 234.391L262.21 156.395C261.865 154.693 261.878 152.937 262.251 151.241C262.623 149.544 263.345 147.944 264.371 146.542C265.445 145.071 266.81 143.836 268.382 142.914C269.954 141.992 271.698 141.403 273.508 141.182C348.768 131.854 423.292 131.838 495.012 141.134C496.796 141.352 498.516 141.935 500.065 142.845C501.614 143.756 502.959 144.975 504.015 146.427C505.035 147.808 505.76 149.385 506.143 151.058C506.527 152.731 506.561 154.465 506.245 156.153L491.829 233.91C488.717 250.694 473.704 262.877 456.13 262.877Z" fill="#467BA5"/>
<path d="M165.943 159.336L166.565 148.174C166.662 146.436 167.179 144.746 168.073 143.25C168.966 141.755 170.209 140.498 171.696 139.587C180.706 134.067 205.01 121.915 236.025 128.285C238.203 128.735 240.189 129.844 241.714 131.461C243.239 133.078 244.228 135.125 244.547 137.323L245.377 143.131L165.943 159.336Z" fill="#3F3D56"/>
<path d="M603.311 159.336L523.877 143.131L525.212 133.8C525.365 132.699 525.846 131.668 526.591 130.841C527.336 130.014 528.312 129.428 529.393 129.16C565.161 120.196 592.54 136.114 600.08 141.207C600.795 141.692 601.39 142.334 601.817 143.085C602.244 143.836 602.492 144.675 602.543 145.537L603.311 159.336Z" fill="#3F3D56"/>
<path d="M140.722 504.718C138.808 504.739 136.928 504.211 135.305 503.197C114.036 490.795 100.776 468.067 95.9241 435.664C91.916 408.899 93.5898 375.304 100.899 335.813C113.857 265.797 141.015 195.812 152.09 168.973C153.558 165.43 155.837 162.281 158.747 159.779C161.656 157.278 165.112 155.494 168.838 154.57C191.67 148.963 231.528 139.555 241.937 139.555C256.201 139.555 263.92 152.964 263.996 153.1L264.039 153.21L276.566 207.456V208.239C283.477 231.589 278.342 248.456 272.814 258.495C266.813 269.392 259.049 274.832 258.972 274.885C246.78 284.154 226.916 314.012 207.148 352.798C186.605 393.104 171.376 432.875 166.412 459.187C160.336 491.392 151.429 501.251 145.026 503.85C143.662 504.416 142.2 504.711 140.722 504.718Z" fill="#E6E6E6"/>
<path d="M451.426 256.211H316.596C308.638 256.2 300.931 253.431 294.791 248.376C288.651 243.321 284.459 236.294 282.931 228.495L268.175 152.639C267.847 150.959 267.868 149.231 268.235 147.56C268.603 145.889 269.309 144.311 270.311 142.924C271.313 141.536 272.59 140.369 274.061 139.493C275.533 138.617 277.169 138.052 278.868 137.833C349.983 128.76 420.402 128.745 488.168 137.786C489.843 138.013 491.455 138.577 492.906 139.444C494.357 140.31 495.617 141.461 496.611 142.827C497.604 144.193 498.31 145.746 498.687 147.392C499.063 149.037 499.102 150.742 498.8 152.403L485.179 228.027C483.761 235.934 479.602 243.091 473.431 248.243C467.26 253.396 459.47 256.217 451.426 256.211Z" fill="#E6E6E6"/>
<path d="M628.535 504.719C627.056 504.712 625.593 504.417 624.228 503.85C617.826 501.251 608.919 491.392 602.842 459.187C597.878 432.875 582.649 393.104 562.106 352.798C542.338 314.012 522.475 284.154 510.268 274.874C510.205 274.832 502.441 269.392 496.441 258.495C490.912 248.456 485.777 231.589 492.688 208.239L492.699 207.362L505.229 153.152L505.258 153.1C505.335 152.964 513.053 139.555 527.318 139.555C537.727 139.555 577.584 148.963 600.416 154.57C604.142 155.494 607.599 157.278 610.508 159.78C613.417 162.281 615.697 165.43 617.164 168.973C628.239 195.812 655.398 265.796 668.356 335.813C675.664 375.304 677.338 408.899 673.33 435.664C668.478 468.067 655.218 490.795 633.92 503.215C632.305 504.219 630.437 504.741 628.535 504.719Z" fill="#E6E6E6"/>
<path d="M292.838 347.453C310.811 347.453 325.381 332.904 325.381 314.956C325.381 297.008 310.811 282.459 292.838 282.459C274.865 282.459 260.295 297.008 260.295 314.956C260.295 332.904 274.865 347.453 292.838 347.453Z" fill="#3F3D56"/>
<path d="M292.838 336.621C304.82 336.621 314.534 326.921 314.534 314.956C314.534 302.991 304.82 293.291 292.838 293.291C280.856 293.291 271.142 302.991 271.142 314.956C271.142 326.921 280.856 336.621 292.838 336.621Z" fill="#2F2E41"/>
<path d="M474.747 347.453C492.721 347.453 507.291 332.904 507.291 314.956C507.291 297.008 492.721 282.459 474.747 282.459C456.774 282.459 442.204 297.008 442.204 314.956C442.204 332.904 456.774 347.453 474.747 347.453Z" fill="#3F3D56"/>
<path d="M474.747 336.621C486.73 336.621 496.443 326.921 496.443 314.956C496.443 302.991 486.73 293.291 474.747 293.291C462.765 293.291 453.052 302.991 453.052 314.956C453.052 326.921 462.765 336.621 474.747 336.621Z" fill="#2F2E41"/>
<path d="M363.766 275.793C365.149 275.793 366.269 274.674 366.269 273.293C366.269 271.912 365.149 270.793 363.766 270.793C362.383 270.793 361.263 271.912 361.263 273.293C361.263 274.674 362.383 275.793 363.766 275.793Z" fill="#2F2E41"/>
<path d="M374.614 275.793C375.996 275.793 377.117 274.674 377.117 273.293C377.117 271.912 375.996 270.793 374.614 270.793C373.231 270.793 372.11 271.912 372.11 273.293C372.11 274.674 373.231 275.793 374.614 275.793Z" fill="#2F2E41"/>
<path d="M369.607 284.959C370.99 284.959 372.111 283.839 372.111 282.459C372.111 281.078 370.99 279.959 369.607 279.959C368.225 279.959 367.104 281.078 367.104 282.459C367.104 283.839 368.225 284.959 369.607 284.959Z" fill="#2F2E41"/>
<path d="M379.62 284.959C381.003 284.959 382.124 283.839 382.124 282.459C382.124 281.078 381.003 279.959 379.62 279.959C378.238 279.959 377.117 281.078 377.117 282.459C377.117 283.839 378.238 284.959 379.62 284.959Z" fill="#2F2E41"/>
<path d="M389.634 284.959C391.016 284.959 392.137 283.839 392.137 282.459C392.137 281.078 391.016 279.959 389.634 279.959C388.251 279.959 387.131 281.078 387.131 282.459C387.131 283.839 388.251 284.959 389.634 284.959Z" fill="#2F2E41"/>
<path d="M399.647 284.959C401.03 284.959 402.151 283.839 402.151 282.459C402.151 281.078 401.03 279.959 399.647 279.959C398.265 279.959 397.144 281.078 397.144 282.459C397.144 283.839 398.265 284.959 399.647 284.959Z" fill="#2F2E41"/>
<path d="M385.462 275.793C386.844 275.793 387.965 274.674 387.965 273.293C387.965 271.912 386.844 270.793 385.462 270.793C384.079 270.793 382.958 271.912 382.958 273.293C382.958 274.674 384.079 275.793 385.462 275.793Z" fill="#2F2E41"/>
<path d="M396.309 275.793C397.692 275.793 398.813 274.674 398.813 273.293C398.813 271.912 397.692 270.793 396.309 270.793C394.927 270.793 393.806 271.912 393.806 273.293C393.806 274.674 394.927 275.793 396.309 275.793Z" fill="#2F2E41"/>
<path d="M407.157 275.793C408.54 275.793 409.661 274.674 409.661 273.293C409.661 271.912 408.54 270.793 407.157 270.793C405.775 270.793 404.654 271.912 404.654 273.293C404.654 274.674 405.775 275.793 407.157 275.793Z" fill="#2F2E41"/>
<path d="M395.475 350.369H373.779C372.783 350.369 371.828 349.974 371.124 349.271C370.42 348.568 370.024 347.614 370.024 346.62C370.024 345.625 370.42 344.671 371.124 343.968C371.828 343.265 372.783 342.87 373.779 342.87H395.475C396.471 342.87 397.426 343.265 398.13 343.968C398.834 344.671 399.23 345.625 399.23 346.62C399.23 347.614 398.834 348.568 398.13 349.271C397.426 349.974 396.471 350.369 395.475 350.369Z" fill="#2F2E41"/>
<path d="M251.82 187.373C250.42 187.369 249.062 186.894 247.965 186.025C246.868 185.155 246.097 183.943 245.775 182.582L242.448 168.476C242.071 166.873 242.348 165.186 243.216 163.786C244.085 162.386 245.474 161.387 247.079 161.01C248.684 160.632 250.374 160.906 251.777 161.772C253.18 162.638 254.181 164.024 254.561 165.627L257.888 179.732C258.102 180.646 258.107 181.595 257.902 182.51C257.696 183.425 257.287 184.282 256.703 185.017C256.12 185.752 255.377 186.345 254.532 186.753C253.686 187.161 252.759 187.373 251.82 187.373Z" fill="#3F3D56"/>
<path d="M518.269 186.539C517.33 186.54 516.403 186.328 515.557 185.92C514.712 185.512 513.969 184.919 513.386 184.184C512.802 183.449 512.392 182.592 512.187 181.677C511.982 180.762 511.987 179.812 512.201 178.899L515.528 164.794C515.908 163.191 516.909 161.805 518.312 160.939C519.715 160.073 521.404 159.799 523.01 160.176C524.615 160.554 526.004 161.553 526.873 162.953C527.741 164.353 528.018 166.04 527.641 167.643L524.314 181.748C523.992 183.109 523.221 184.322 522.124 185.191C521.027 186.061 519.669 186.535 518.269 186.539Z" fill="#3F3D56"/>
<path d="M205.913 229.008C203.865 229.009 201.867 228.379 200.19 227.205L193.206 222.323C191.892 221.404 190.819 220.182 190.078 218.761C189.337 217.34 188.95 215.762 188.949 214.16V199.208C188.953 196.206 190.149 193.328 192.275 191.205C194.401 189.082 197.283 187.887 200.29 187.884H210.987C213.993 187.887 216.876 189.082 219.002 191.205C221.128 193.328 222.324 196.206 222.327 199.208V214.307C222.324 215.867 221.956 217.406 221.251 218.799C220.546 220.191 219.524 221.4 218.267 222.328L211.832 227.064C210.118 228.327 208.043 229.009 205.913 229.008Z" fill="#3F3D56"/>
<path d="M210.987 283.709H200.29C197.283 283.705 194.401 282.511 192.275 280.388C190.149 278.265 188.953 275.387 188.949 272.384V257.433C188.95 255.831 189.337 254.252 190.078 252.831C190.819 251.41 191.892 250.188 193.206 249.269L200.19 244.387C201.901 243.19 203.945 242.56 206.034 242.585C208.123 242.611 210.151 243.29 211.832 244.529L218.267 249.264C219.524 250.192 220.546 251.401 221.251 252.794C221.956 254.187 222.324 255.725 222.327 257.286V272.384C222.324 275.387 221.128 278.265 219.002 280.388C216.876 282.511 213.993 283.705 210.987 283.709Z" fill="#3F3D56"/>
<path d="M244.365 252.462H229.392C227.788 252.461 226.207 252.074 224.784 251.334C223.361 250.595 222.137 249.523 221.217 248.211L216.328 241.237C215.129 239.529 214.497 237.487 214.523 235.401C214.548 233.316 215.229 231.29 216.469 229.612L221.212 223.185C222.141 221.93 223.352 220.91 224.747 220.206C226.141 219.502 227.682 219.134 229.245 219.131H244.365C247.371 219.135 250.254 220.329 252.38 222.452C254.506 224.575 255.702 227.453 255.705 230.455V241.137C255.702 244.14 254.506 247.018 252.38 249.141C250.254 251.264 247.371 252.458 244.365 252.462Z" fill="#3F3D56"/>
<path d="M181.05 252.462H166.077C163.071 252.458 160.188 251.264 158.062 249.141C155.936 247.018 154.741 244.14 154.737 241.137V230.455C154.741 227.453 155.936 224.575 158.062 222.452C160.188 220.329 163.071 219.135 166.077 219.131H181.197C182.76 219.134 184.301 219.502 185.696 220.206C187.091 220.91 188.301 221.93 189.231 223.185L193.973 229.612C195.213 231.29 195.894 233.316 195.919 235.401C195.945 237.487 195.314 239.529 194.115 241.237L189.226 248.211C188.305 249.523 187.081 250.595 185.658 251.334C184.235 252.074 182.655 252.461 181.05 252.462Z" fill="#3F3D56"/>
<path d="M564.033 212.465C574.633 212.465 583.226 203.885 583.226 193.3C583.226 182.716 574.633 174.135 564.033 174.135C553.434 174.135 544.841 182.716 544.841 193.3C544.841 203.885 553.434 212.465 564.033 212.465Z" fill="#3F3D56"/>
<path d="M606.59 256.628C617.19 256.628 625.782 248.047 625.782 237.463C625.782 226.878 617.19 218.298 606.59 218.298C595.99 218.298 587.398 226.878 587.398 237.463C587.398 248.047 595.99 256.628 606.59 256.628Z" fill="#3F3D56"/>
<path d="M564.033 298.291C574.633 298.291 583.226 289.71 583.226 279.126C583.226 268.541 574.633 259.961 564.033 259.961C553.434 259.961 544.841 268.541 544.841 279.126C544.841 289.71 553.434 298.291 564.033 298.291Z" fill="#3F3D56"/>
<path d="M521.476 255.795C532.076 255.795 540.669 247.214 540.669 236.63C540.669 226.045 532.076 217.465 521.476 217.465C510.877 217.465 502.284 226.045 502.284 236.63C502.284 247.214 510.877 255.795 521.476 255.795Z" fill="#3F3D56"/>
<path d="M606.59 249.962C604.115 249.962 601.695 249.229 599.636 247.855C597.578 246.482 595.974 244.53 595.026 242.246C594.079 239.962 593.831 237.449 594.314 235.024C594.797 232.6 595.989 230.373 597.739 228.625C599.49 226.877 601.72 225.686 604.148 225.204C606.576 224.722 609.093 224.969 611.38 225.915C613.667 226.861 615.622 228.463 616.997 230.519C618.373 232.574 619.107 234.991 619.107 237.463C619.103 240.777 617.783 243.954 615.437 246.297C613.09 248.64 609.909 249.958 606.59 249.962ZM606.59 226.63C604.445 226.63 602.347 227.266 600.563 228.456C598.779 229.646 597.389 231.338 596.568 233.317C595.747 235.297 595.532 237.475 595.951 239.576C596.369 241.677 597.402 243.608 598.92 245.122C600.437 246.637 602.37 247.669 604.474 248.087C606.578 248.505 608.759 248.291 610.741 247.471C612.724 246.651 614.418 245.262 615.61 243.481C616.802 241.7 617.438 239.605 617.438 237.463C617.435 234.591 616.291 231.837 614.257 229.807C612.223 227.776 609.466 226.634 606.59 226.63Z" fill="#E6E6E6"/>
<path d="M577.445 202.599L552.291 202.244L565.176 180.668L577.445 202.599ZM555.205 200.618L574.578 200.892L565.129 184.001L555.205 200.618Z" fill="#E6E6E6"/>
<path d="M531.49 246.629H511.463V226.63H531.49V246.629ZM513.132 244.962H529.821V228.297H513.132V244.962Z" fill="#E6E6E6"/>
<path d="M574.39 287.73L565.215 278.586L573.306 270.521L572.126 269.342L564.034 277.408L555.94 269.342L554.761 270.521L562.852 278.586L553.677 287.73L554.856 288.91L564.034 279.763L573.211 288.91L574.39 287.73Z" fill="#E6E6E6"/>
<path d="M205.885 61.5275C203.409 61.5275 200.989 60.7945 198.931 59.4211C196.872 58.0477 195.268 56.0956 194.321 53.8117C193.373 51.5279 193.126 49.0148 193.609 46.5902C194.092 44.1657 195.284 41.9386 197.034 40.1906C198.785 38.4426 201.015 37.2522 203.443 36.7699C205.871 36.2876 208.388 36.5352 210.675 37.4812C212.962 38.4272 214.917 40.0292 216.292 42.0846C217.667 44.1401 218.401 46.5566 218.401 49.0286C218.398 52.3424 217.078 55.5194 214.731 57.8625C212.385 60.2057 209.203 61.5238 205.885 61.5275ZM205.885 38.1963C203.739 38.1963 201.642 38.8316 199.858 40.0219C198.074 41.2121 196.684 42.9039 195.863 44.8833C195.042 46.8626 194.827 49.0407 195.245 51.1419C195.664 53.2432 196.697 55.1733 198.214 56.6883C199.731 58.2032 201.664 59.2349 203.768 59.6529C205.873 60.0708 208.054 59.8563 210.036 59.0364C212.018 58.2166 213.712 56.8281 214.904 55.0468C216.096 53.2654 216.733 51.1711 216.733 49.0286C216.729 46.1567 215.585 43.4033 213.552 41.3725C211.518 39.3417 208.761 38.1995 205.885 38.1963Z" fill="#E6E6E6"/>
<path d="M177.574 40.8291L152.42 40.4739L165.305 18.8983L177.574 40.8291ZM155.334 38.8481L174.707 39.1219L165.258 22.2313L155.334 38.8481Z" fill="#E6E6E6"/>
<path d="M140.552 71.2278H120.525V51.2296H140.552V71.2278ZM122.194 69.5613H138.883V52.8961H122.194V69.5613Z" fill="#E6E6E6"/>
<path d="M158.664 108.461L149.489 99.3169L157.58 91.2535L156.401 90.0736L148.308 98.1395L140.215 90.0736L139.036 91.2535L147.126 99.3169L137.952 108.461L139.131 109.641L148.308 100.494L157.485 109.641L158.664 108.461Z" fill="#E6E6E6"/>
<path opacity="0.2" d="M723.83 287.042L691.441 311.384L728.002 295.374L723.83 287.042Z" fill="black"/>
<path d="M124.697 317.039L83.8093 318.705L78.8027 291.208L113.849 280.376L124.697 317.039Z" fill="#A0616A"/>
<path d="M109.664 249.648L100.545 240.376L111.727 223.302L130.866 191.489C130.24 190.119 130.046 188.591 130.309 187.108C130.572 185.625 131.28 184.257 132.339 183.184C133.398 182.112 134.758 181.386 136.239 181.102C137.72 180.818 139.253 180.989 140.634 181.594C142.015 182.199 143.18 183.208 143.974 184.488C144.769 185.768 145.155 187.259 145.083 188.764C145.01 190.268 144.482 191.715 143.568 192.913C142.654 194.111 141.397 195.003 139.964 195.473L124.167 229.436L109.664 249.648Z" fill="#A0616A"/>
<path d="M99.562 270.817C98.4911 272.473 96.9654 273.786 95.1672 274.599C93.369 275.412 91.3744 275.691 89.4218 275.402C87.5632 275.183 85.8091 274.427 84.3749 273.226C82.9407 272.026 81.8888 270.433 81.3484 268.644C80.9503 267.374 80.8343 266.033 81.0087 264.714C81.183 263.395 81.6434 262.129 82.3578 261.006C88.4587 250.736 99.7107 237.173 99.8235 237.038L100.003 236.822L118.981 240.928L99.562 270.817Z" fill="#467BA5"/>
<path d="M114.952 498.099L126.291 498.098L131.685 454.422L114.949 454.423L114.952 498.099Z" fill="#A0616A"/>
<path d="M112.059 494.402L134.39 494.401H134.391C138.165 494.401 141.785 495.898 144.454 498.563C147.123 501.228 148.622 504.843 148.622 508.612V509.073L112.06 509.075L112.059 494.402Z" fill="#2F2E41"/>
<path d="M26.6589 493.197L37.8705 494.889L49.743 452.51L35.0451 450.012L26.6589 493.197Z" fill="#A0616A"/>
<path d="M24.3523 489.11L46.4329 492.442L46.4338 492.443C50.1656 493.006 53.5204 495.027 55.7603 498.06C58.0002 501.094 58.9417 504.891 58.3778 508.618L58.3087 509.075L22.1564 503.618L24.3523 489.11Z" fill="#2F2E41"/>
<path d="M82.1402 310.373L121.359 303.707L133.494 328.685L133.957 491.701L112.432 491.567L103.434 359.625L46.0889 481.541L22.9659 478.771L73.3742 348.08C73.3742 348.08 70.5994 324.99 79.3862 313.445L82.1402 310.373Z" fill="#2F2E41"/>
<path d="M67.5805 261.162C66.9811 259.364 66.9174 257.43 67.3972 255.597C67.877 253.764 68.8796 252.109 70.2832 250.833L75.8569 245.774L91.5704 243.131L101.395 241.347L117.187 287.042L78.8332 304.638C75.4673 303.912 74.1228 302.074 76.0813 298.418L67.5805 261.162Z" fill="#467BA5"/>
<path d="M102.78 276.58L113.751 269.588L128.166 284.045L155.377 309.323C156.849 308.996 158.386 309.123 159.784 309.686C161.183 310.25 162.377 311.225 163.209 312.481C164.041 313.737 164.471 315.216 164.443 316.722C164.415 318.228 163.929 319.689 163.051 320.914C162.173 322.138 160.943 323.067 159.525 323.579C158.106 324.09 156.565 324.159 155.106 323.777C153.648 323.395 152.339 322.58 151.355 321.439C150.37 320.298 149.755 318.886 149.592 317.389L119.584 294.93L102.78 276.58Z" fill="#A0616A"/>
<path d="M84.1288 262.33C82.728 260.942 81.7573 259.18 81.3327 257.255C80.9081 255.33 81.0477 253.324 81.7346 251.476C82.3342 249.706 83.4381 248.149 84.9109 246.996C86.3837 245.844 88.1613 245.145 90.0259 244.987C91.3524 244.86 92.6904 245.025 93.9468 245.468C95.2032 245.911 96.3477 246.622 97.3004 247.553C106.101 255.637 117.062 269.436 117.171 269.574L117.345 269.794L109.397 287.486L84.1288 262.33Z" fill="#467BA5"/>
<path d="M84.6743 237.571C94.2006 237.571 101.923 229.86 101.923 220.347C101.923 210.835 94.2006 203.123 84.6743 203.123C75.1481 203.123 67.4255 210.835 67.4255 220.347C67.4255 229.86 75.1481 237.571 84.6743 237.571Z" fill="#A0616A"/>
<path d="M70.7095 244.885C68.0346 244.885 65.3623 244.722 62.7072 244.398L62.3432 244.354L59.5648 229.291C58.3865 222.906 59.7003 216.313 63.2366 210.865C66.7729 205.417 72.2635 201.527 78.5815 199.993C79.003 199.887 79.4459 199.898 79.8614 200.027C80.2768 200.155 80.6487 200.396 80.9362 200.721L81.5989 200.491C84.1358 199.607 86.8222 199.232 89.5046 199.385C92.187 199.538 94.8129 200.218 97.2324 201.384C99.6518 202.551 101.817 204.182 103.606 206.185C105.394 208.187 106.769 210.522 107.654 213.055L107.818 213.526L103.396 215.065C102.018 215.545 100.765 216.326 99.7273 217.35C98.6895 218.374 97.8934 219.617 97.3969 220.987C96.9004 222.357 96.716 223.82 96.8571 225.271C96.9983 226.721 97.4613 228.122 98.2127 229.371L102.734 236.887L102.252 237.128C92.4943 242.152 81.6881 244.809 70.7095 244.885Z" fill="#2F2E41"/>
<path d="M663.299 316.963C663.499 316 663.907 315.092 664.496 314.304C665.085 313.516 665.84 312.866 666.707 312.401C667.575 311.935 668.534 311.666 669.517 311.61C670.5 311.555 671.484 311.716 672.398 312.081L688.086 294.027L691.441 305.988L676.029 321.299C675.313 322.792 674.073 323.971 672.544 324.612C671.016 325.253 669.305 325.312 667.736 324.777C666.166 324.243 664.848 323.152 664.03 321.712C663.213 320.271 662.953 318.582 663.299 316.963H663.299Z" fill="#FFB6B6"/>
<path d="M733.302 237.587L739.729 237.24L740.697 241.319C740.697 241.319 740.601 246.543 734.741 257.4C728.882 268.258 683.478 316.599 683.478 316.599L673.645 305.456L697.949 280.458L712.667 254.257L733.302 237.587Z" fill="#467BA5"/>
<path d="M1.04056 510H763.959C764.235 510 764.5 509.891 764.695 509.696C764.89 509.501 765 509.237 765 508.961C765 508.685 764.89 508.421 764.695 508.226C764.5 508.031 764.235 507.922 763.959 507.922H1.04056C0.764591 507.922 0.499923 508.031 0.304781 508.226C0.109639 508.421 0 508.685 0 508.961C0 509.237 0.109639 509.501 0.304781 509.696C0.499923 509.891 0.764591 510 1.04056 510Z" fill="#CCCCCC"/>
</g>
<defs>
<clipPath id="clip0_7_21">
<rect width="765" height="510" fill="white"/>
</clipPath>
</defs>
</svg>
