<svg width="40" height="32" viewBox="0 0 40 32" fill="none" xmlns="http://www.w3.org/2000/svg">
<g clip-path="url(#clip0_7_151)">
<path d="M39.45 6.03125L27.2813 0C26.025 1.7375 23.2438 2.95 20 2.95C16.7563 2.95 13.975 1.7375 12.7188 0L0.550011 6.03125C0.056261 6.28125 -0.143739 6.88125 0.100011 7.375L3.67501 14.5312C3.92501 15.025 4.52501 15.225 5.01876 14.9812L8.55626 13.25C9.21876 12.925 9.99376 13.4062 9.99376 14.15V30C9.99376 31.1063 10.8875 32 11.9938 32H27.9938C29.1 32 29.9938 31.1063 29.9938 30V14.1438C29.9938 13.4062 30.7688 12.9187 31.4313 13.2437L34.9688 14.975C35.4625 15.225 36.0625 15.025 36.3125 14.525L39.8938 7.375C40.1438 6.88125 39.9438 6.275 39.45 6.03125Z" fill="#467BA5"/>
</g>
<defs>
<clipPath id="clip0_7_151">
<rect width="40" height="32" fill="white"/>
</clipPath>
</defs>
</svg>
